<?xml version="1.0" encoding="UTF-8"?>
<svg version="1.1" viewBox="0 0 2048 1666" width="838" height="682" xmlns="http://www.w3.org/2000/svg">
<path transform="translate(0)" d="m0 0h2048v1666h-2048z" fill="#FCFCFC"/>
<path transform="translate(932,574)" d="m0 0h11l6 4 4 5 1 3v9l-3 10-6 10-9 10-7 7-14 10-16 9-16 8-26 12-31 13-35 17-11 7-10 9-3 3-3 16v15l4 14 7 11 7 8 15 10 17 8 18 5 22 4 18 2h35l14-2 9-4 8-6 7-8 7-14 4-16 2-15v-44l-1-13v-18l3-17 7-16 7-10 9-10 15-11 14-8 19-7 25-6 17-2 8 3 6 7 1 3v7l-4 8-7 4-28 6-17 5-17 8-11 9-8 10-5 13-1 8v10l2 31 1 2-2 31-4 26-5 16-8 16-8 11-9 9-14 9-10 4-20 4-12 1h-16l-29-2-21-3-23-6-19-7-17-9-14-10-11-11-8-11-7-14-3-9-2-12v-22l3-16 4-10 7-9 8-8 15-11 26-14 24-11 27-12 35-16 16-9 13-9 8-8 4-8 2-8z" fill="#0148A4"/>
<path transform="translate(1099,635)" d="m0 0h13l16 4 12 6 9 7 9 9 7 10 8 16 5 16 2 11v16l-4 6-5 4-3 1h-9l-6-4-4-5-4-24-6-16-7-10-4-5-10-6-5-2h-15l-12 5-11 8-11 11-10 14-6 10-7 19-4 15-2 13v29l3 16 5 13 5 9 9 10 10 7 18 11 11 8 12 11 9 14 6 13 7 23 9 31 5 12 8 14 9 11 9 8 11 7 14 6 17 4 20 2-8-15-12-27-3-10v-10l4-6 7-5h10l6 4 5 8 7 19 17 34 5 15v13l-5 8-10 5h-20l-34-3-21-5-17-7-11-8-10-8-8-8-11-15-9-16-8-21-12-41-5-13-6-10-5-6-13-10-22-13-10-8-9-9-11-18-6-16-5-21-1-24 2-23 5-22 5-16 9-19 12-18 11-13 8-8 15-11 17-8z" fill="#0148A4"/>
<path transform="translate(1285,399)" d="m0 0h19l19 3 15 5 13 7 22 15 19 14 13 11 15 15 10 13 10 19 5 16 1 8-4 8-5 4-4 2h-8l-6-3-5-6-5-17-8-15-11-13-10-10-14-11-23-16-15-9-14-5-6-1h-29l-16 4-17 8h-2l1 2 19 5 15 4 9 5 10 10 7 11 5 12 4 18 1 9v20l-3 20-9 21-8 11-8 9-14 10-16 8-19 5-12 1h-12l-23-2-21-4-33-11-25-12-20-11-10-7-13-10-12-10-7-8-8-10-5-10-1-7 3-7 6-5 6-2 8 1 8 7 7 11 10 11 12 9 10 7 14 8 15 8 23 9 19 6 21 4 8 1h25l17-4 10-5 11-10 7-12 4-11 1-5v-27l-3-14-7-14-7-4-16-4-12-4-13-7-6-5-6-9-2-11 2-9 6-9 8-8 11-7 18-8 21-5z" fill="#0148A4"/>
<path transform="translate(888,313)" d="m0 0h11l9 4 11 8 11 10 9 12 10 17 7 17 5 16 2 13v28l-4 16-4 9-6 11-11 12-9 8-13 8-18 8-18 5-16 3-20 1-31-3-26-4-40-9-86-22-28-7-13-3-8-1-5 1-10 4-8 6-6 9-5 13-3 14-1 20 2 20 4 16 5 12 5 10v9l-4 7-7 4h-10l-6-4-6-7-7-15-5-17-3-18-1-9v-21l2-17 5-19 7-16 7-10 6-7 11-8 10-5 9-3 14-2 14 1 26 6 75 20 32 8 42 9 19 3 11 1h27l18-3 16-5 14-7 9-7 7-8 5-10 3-12v-17l-3-17-7-19-8-15-9-12-8-6-12-6-5-6-1-2v-9l4-7z" fill="#0148A4"/>
<path transform="translate(932,227)" d="m0 0h41l24 3 19 4 15 5 9 5 4 5 1 2v10l-6 8-6 3h-7l-22-7-26-4-13-1h-24l-35 3-26 4-36 8-33 10-24 9-15 7-16 8-23 15-10 8-13 13-7 11-5 11-3 11v10l4 11 7 7 16 8 18 5 28 4h42l22-3 21-5 13-5 8-6 4-8 5-4 9-1 7 3 5 5 3 8-2 11-6 8-9 8-14 8-18 6-17 4-22 3-13 1-35 1-33-4-23-6-17-7-14-9-12-11-7-11-4-11-1-6v-10l3-17 6-15 8-15 10-13 9-10 11-9 15-11 19-12 21-11 32-13 30-10 36-9 35-6z" fill="#0148A4"/>
<path transform="translate(1056,446)" d="m0 0 9 1 6 4 4 7 1 6-3 7-9 8-10 6-11 10-10 13-11 13-9 9-10 7-15 8-18 6-22 4-35 1-25 3-16 5-16 8-12 8-13 11-14 10-19 10-20 7-16 4-19 3-35 2-40 2-15 3-12 4-9 6-7 8-4 9v9l4 9 6 8 14 10 15 7 16 5 26 4 8 4 4 6 1 10-4 6-6 5-2 1h-15l-18-3-15-4-16-7-16-9-13-10-9-9-8-13-4-11-1-4v-18l4-13 8-13 7-9 5-5 14-9 16-6 15-3 15-2 43-2 32-3 21-4 17-6 17-9 17-13 17-12 18-10 15-6 16-4 11-2 12-1 32-1 21-3 16-6 12-7 10-9 9-10 8-11 14-15 13-9 10-5z" fill="#0148A4"/>
<path transform="translate(1214,290)" d="m0 0 19 1 16 3 20 8 14 8 11 8 12 11 7 6 7 8 8 9 8 11 1 3v8l-4 7-7 5h-10l-6-4-9-10-9-11-13-13-13-10-16-8-10-4-12-2h-20l-15 4-17 7-14 9-10 9-12 12-10 15-7 15-3 18-1 12v14l3 21 4 15 7 16 7 11 11 12 8 7 12 7 15 5 14 2h18l17-3h7l6 4 5 6 1 2v9l-5 8-9 4-18 3h-26l-24-4-15-6-11-6-16-12-10-10-10-13-8-14-8-18-3-10-4-20-1-10v-27l3-22 4-15 8-16 7-11 9-12 12-13 10-9 14-10 18-10 18-6 16-3z" fill="#0148A4"/>
<path transform="translate(1098,701)" d="m0 0 8 1 6 4 4 6 1 9-6 15-3 14v21l5 20 7 15 6 11 12 16 12 13 10 10 17 13 14 9 21 11 14 5 10 2h16l14-3 9-5 3-4-2-4-5-5-14-7-19-8-14-8-13-10-18-18-13-17-7-10-3-6 1-9 4-6 6-4 8-1 7 3 8 9 10 14 11 12 10 10 14 9 15 7 15 6 13 8 8 7 7 11 3 7 1 5v8l-2 9-7 12-9 8-14 8-13 4-6 1h-25l-18-3-21-8-20-10-19-13-13-10-15-13-8-8-18-22-11-17-7-15-6-17-4-18v-29l3-15 5-15 5-9 6-5z" fill="#0148A4"/>
<path transform="translate(1414,562)" d="m0 0h10l12 2 12 5 11 6 10 8 8 8 9 13 8 16 3 11 1 7v22l-3 13-8 17-8 10-11 10-13 8-12 4-7 1h-19l-6-4-4-7v-10l6-8 5-2 16-2 11-4 10-8 6-9 3-9 1-6v-11l-2-10-5-12-8-10-1-3-4-2-10-7-10-3h-13l-12 6-10 9-8 7-15 15h-2v2h-2l-2 4-8 7-15 13-15 11-10 6-16 7-16 5-21 3h-25l-30-4-20-5-8-5-3-5v-11l5-7 5-3 7-1 37 7h31l14-2 15-5 16-8 12-8 11-9 6-5 26-26 8-7 11-10 13-8 12-5z" fill="#0148A4"/>
<path transform="translate(1400,625)" d="m0 0h8l7 4 5 8-1 10-6 9-9 10-7 8-33 33 10 3 15 8 11 9 8 10 8 16 3 11 1 7v30l-5 15-8 14-11 12-10 7-12 6-10 3-14 1-16-3-16-7-18-10-21-16-10-9-8-7-13-12-9-9-7-8-13-14-7-8-3-5v-9l3-6 6-5 2-1h9l8 5 7 7 7 8 14 15 23 23 22 18 14 9 17 8 6 2h12l10-4 7-5 7-10 4-13v-17l-4-16-6-9-8-7-12-5-19-5-5-1-9-6-3-7v-9l4-10 9-11 24-24 8-7 13-14 8-10 7-7z" fill="#0148A4"/>
<path transform="translate(1309,1102)" d="m0 0h10l7 4 7 11 16 38 19 44 12 28 17 40-1 7-5 5-4 2-7-1-7-8-14-33-1-4h-86l-7 14-10 24-5 6-4 2-7-1-6-5-1-2v-7l20-47 15-35 23-53 8-19 7-8z" fill="#0148A4"/>
<path transform="translate(1080,1102)" d="m0 0h107l5 3 3 4v8l-4 5-6 2h-91l1 57h83l6 4 3 6-2 6-7 6-4 1-80-1 1 56h92l6 4 3 6-1 5-5 5-5 3h-98l-10-2-6-5-1-74v-80l1-12 6-6z" fill="#0148A4"/>
<path transform="translate(698,1100)" d="m0 0h30l22 4 12 4 6 5 1 2v7l-5 6-2 1-9-1-16-4-18-2h-12l-14 2-12 5-8 7-4 9v9l3 8 8 7 12 5 26 7 21 6 16 7 10 8 8 10 4 16v9l-3 12-4 8-11 12-14 8-11 4-10 2h-33l-25-6-12-4-8-5-3-4v-6l4-6 4-2 8 1 18 6 15 3 10 1h14l14-2 12-5 5-4 5-10v-13l-4-6-8-6-16-6-33-9-21-8-13-9-7-9-4-9-1-4v-16l4-13 7-12 11-9 14-7 10-3z" fill="#0148A4"/>
<path transform="translate(1119,258)" d="m0 0 9 1 5 3 5 6 1 2v9l-4 6-8 5-17 5-21 9-12 8-14 12-9 10-9 14-8 16-7 21-6 29-4 16-8 16-8 10-11 13-8 4-8-1-8-6-3-6v-7l4-8 7-7 9-13 4-11 7-34 8-26 7-17 10-15 8-11 19-19 15-11 15-9 25-10z" fill="#0148A4"/>
<path transform="translate(924,648)" d="m0 0h10l5 3 4 5 1 2v10l-3 6-9 10-12 10-19 14-18 13-14 10-10 8-8 8-5 8v5l7 4 14 5 24 6 6 3 5 6 1 3v7l-4 8-7 5h-8l-19-4-21-7-14-8-10-9-5-7-3-11v-7l4-13 8-12 9-10 11-10 10-8 18-13 20-14 13-10 8-7 3-5z" fill="#0148A4"/>
<path transform="translate(891,1102)" d="m0 0h131l7 3 4 7-2 6-5 5-5 1h-52l1 90v58l-3 5-4 3-8 1-8-6-1-3v-148l-14 1-38-1-6-2-4-5-1-5 3-6z" fill="#0148A4"/>
<path transform="translate(629,494)" d="m0 0 10 2 7 6 2 5 1 18 3 9 5 6 9 3h11l22-3 60-14h7l6 3 5 6 2 5-1 8-3 5-3 1v2l-16 5-42 10-22 4-9 1h-24l-15-4-10-5-5-5-5-6-4-8-4-14-1-9v-18l3-6 6-5z" fill="#0148A4"/>
<path transform="translate(1214,360)" d="m0 0 9 1 6 4 4 7 1 4-3 9-4 5-11 9-15 13-9 10-6 12-1 3v16l4 13 9 17 9 12 2 4v9l-4 7-6 4-3 1h-7l-7-4-10-12-12-20-8-18-3-11-1-7 1-16 3-10 6-11 9-11 17-17 11-9 11-10z" fill="#0148A4"/>
<path transform="translate(808,351)" d="m0 0h31l20 2 15 3 6 4 4 8-1 10-5 6-5 3-8 1-27-4h-29l-28 3-17 4-12 7-8 1-7-3-5-5-2-5 1-10 6-7 10-6 13-5 17-4 15-2z" fill="#0148A4"/>
<path transform="translate(1333,462)" d="m0 0 9 1 6 4 7 8 8 13 7 15 4 13 1 7v12l-4 16-6 11-11 12-8 7-13 8-3 1h-8l-8-6-3-5v-10l4-6 13-10 7-8 4-8 1-4v-13l-4-12-7-12-7-10-2-9 3-8 8-6z" fill="#0148A4"/>
<path transform="translate(831,1102)" d="m0 0h6l7 6 1 2 1 13v80l-1 71-7 6-7 1-6-4-3-3-1-72 1-92 5-6z" fill="#0148A4"/>
<path transform="translate(1279,714)" d="m0 0h7l9 5 13 10 18 14 11 9 14 12 15 15 4 7 1 6-3 8-8 6-9 1-8-4-12-13-8-7-14-12-28-22-11-8-4-8v-7l5-8z" fill="#0148A4"/>
<path transform="translate(1314,1133)" d="m0 0 3 4 13 31 11 26 7 16v3h-68l2-6 15-35 11-26 5-12z" fill="#F9FAFB"/>
<path transform="translate(943,277)" d="m0 0 9 2 8 7 7 8 16 24 6 13v9l-4 6-8 5-9-1-7-4-11-18-12-17-4-4v-2h-2l-4-8v-8l3-6 8-5z" fill="#0148A4"/>
</svg>
